<?xml version="1.0" encoding="utf-8"?>
<!-- Generator: Adobe Illustrator 21.0.2, SVG Export Plug-In . SVG Version: 6.00 Build 0)  -->
<svg version="1.1" id="Layer_1" xmlns="http://www.w3.org/2000/svg" xmlns:xlink="http://www.w3.org/1999/xlink" x="0px" y="0px"
	 viewBox="0 0 985 1520" style="enable-background:new 0 0 985 1520;" xml:space="preserve">
<style type="text/css">
	.st0{fill:#E1F4FD;}
	.st1{fill:#FFFFFF;}
	.st2{fill:#DFF3FD;}
	.st3{fill:#71B7D1;}
	.st4{fill:#96CAE3;}
	.st5{fill:#70B4D4;}
	.st6{fill:#C7EAFB;}
	.st7{fill:#48A1BD;}
	.st8{fill:#A2D3EB;}
</style>
<g>
	<g>
		<g>
			<polygon class="st0" points="719.8,309.3 605.8,286.9 454.5,342.1 272.2,321.8 185.5,376.3 129.7,599.5 460.4,649.1 680.4,587.6 
				735.6,604 952.4,604 			"/>
		</g>
	</g>
	<polygon class="st1" points="495.9,0 201.9,169.1 111.6,318.5 129.7,599.5 735.6,604 952.4,604 851.8,344.7 747.9,256.4 
		696.1,129.3 549.7,102.6 	"/>
	<polygon class="st0" points="155.4,364 75.1,452.7 0,604 189.9,611.3 	"/>
	<polygon class="st2" points="495.9,0 414.7,169 495.9,235.8 495.9,286.9 414.7,337.6 354.2,328.4 425.1,375.8 472.5,364 442.8,468 
		384.5,510.5 445,587.6 680.8,543.6 677.8,604 460.4,649.1 0,604 75.1,452.7 143.3,377.3 126,318.5 209.1,169.1 	"/>
	<polygon class="st3" points="0,604 460.4,649.1 680.4,587.6 933,628.7 985,807 967.7,957.4 806.4,1079.3 806.4,1190.6 532,1463.5 
		377.9,1520 350.6,1392.2 189.9,1320.9 52.2,1042.3 91.6,907.9 52.2,888.2 74.4,724.6 	"/>
	<path class="st4" d="M0,604l74.4,120.7L52.2,888.2l39.5,19.7l-39.5,134.5l137.7,278.5l110.9-112.5l57.5,142.1
		c0,0,47.2-68.7,45.1-71.8c-2.2-3.1-14.4-173.6-14.4-173.6l-177-42.1l37.2-155.9l71.3-6.2l140-251.8L0,604z"/>
	<polygon class="st4" points="680.4,587.6 460.4,649.1 320.4,900.9 430.5,962.3 486.4,1133.7 486.4,1254.2 652.7,1071 626,919.3 	
		"/>
	<polygon class="st5" points="680.4,587.6 745,597.7 660.5,934.5 626,919.3 	"/>
	<polygon class="st4" points="952.4,604 734.9,881.2 660.5,934.5 745,597.7 	"/>
	<polygon class="st4" points="858.8,694.8 904.1,831.3 747.9,1027.3 759.9,1133.7 696.1,1030.4 735.6,852.5 	"/>
	<polygon class="st2" points="680.8,543.6 684.6,452.7 774.3,420.3 759.9,519.2 839,503.6 745,597.7 676.2,588.8 	"/>
	<polygon class="st6" points="126,318.5 289.8,191.3 320.4,206.3 240.4,364 348.6,420.3 417.7,420.3 339.7,459.6 216.1,452.7 
		201,514.4 289.8,546.4 321,629.6 126,604 126,485.4 153.1,409.7 	"/>
	<g>
		<polygon class="st2" points="650.4,318.5 591.2,404.7 650.4,459.6 638.3,389.1 		"/>
		<polygon class="st6" points="684.6,452.7 620.8,554.8 680.8,543.6 		"/>
	</g>
</g>
<g>
	<g>
		<polygon class="st3" points="678.9,780.2 719,909.5 744.8,928.2 719,862 		"/>
		<polygon class="st3" points="776.8,893.2 810.7,721.2 786.3,821.3 786.3,821.4 771.1,922.1 		"/>
		<polygon class="st7" points="719.3,862.5 719,862 744.8,928.2 771.1,922.1 786.3,821.4 		"/>
		<polygon class="st8" points="741.4,707.6 810.7,721.2 786.3,821.3 719.3,862.5 678.9,780.2 		"/>
	</g>
</g>
<g>
	<g>
		<polygon class="st8" points="109.5,644 48,662.8 27.2,693.6 126.1,720.5 181.4,695.6 		"/>
	</g>
	<polygon class="st7" points="181.4,695.6 153.3,816.8 112.3,846.6 125.2,720.5 	"/>
	<polygon class="st3" points="125.2,720.5 27.2,693.6 67.2,838.3 112.3,846.6 	"/>
</g>
<g>
	<polygon class="st3" points="405.5,725.5 456.1,912 466.1,782 	"/>
	<polygon class="st7" points="567.4,736 496,910 456.1,912 466.1,782 	"/>
	<polygon class="st8" points="405.5,725.5 552.6,708.7 567.4,736 466.1,782 	"/>
</g>
</svg>
